<svg version="1.1" viewBox="0.0 0.0 119.48818897637796 118.85039370078741" fill="none" stroke="none" stroke-linecap="square" stroke-miterlimit="10" xmlns:xlink="http://www.w3.org/1999/xlink" xmlns="http://www.w3.org/2000/svg"><clipPath id="p.0"><path d="m0 0l119.48819 0l0 118.850395l-119.48819 0l0 -118.850395z" clip-rule="nonzero"/></clipPath><g clip-path="url(#p.0)"><path fill="#000000" fill-opacity="0.0" d="m0 0l119.48819 0l0 118.850395l-119.48819 0z" fill-rule="evenodd"/><path fill="#f3f3f3" d="m32.076252 2.8961968l0 0c14.463772 0 26.181927 12.444368 26.17323 27.795277q-0.007873535 13.897638 -0.01574707 27.795275q-13.09449 0 -26.188976 0l0 0c-14.463774 0 -26.181927 -12.44437 -26.17323 -27.795275l0 0c0.00869751 -15.350907 11.740952 -27.795277 26.204723 -27.795277z" fill-rule="evenodd"/><path stroke="#d9d9d9" stroke-width="1.0" stroke-linejoin="round" stroke-linecap="butt" d="m32.076252 2.8961968l0 0c14.463772 0 26.181927 12.444368 26.17323 27.795277q-0.007873535 13.897638 -0.01574707 27.795275q-13.09449 0 -26.188976 0l0 0c-14.463774 0 -26.181927 -12.44437 -26.17323 -27.795275l0 0c0.00869751 -15.350907 11.740952 -27.795277 26.204723 -27.795277z" fill-rule="evenodd"/><path fill="#f3f3f3" d="m116.761154 32.279526l0 0c0 14.472473 -12.444366 26.204727 -27.795273 26.204727q-13.897636 0 -27.795277 0q0 -13.102364 0 -26.204727l0 0c0 -14.472467 12.44437 -26.204723 27.795277 -26.204723l0 0c15.350906 0 27.795273 11.732255 27.795273 26.204723z" fill-rule="evenodd"/><path stroke="#d9d9d9" stroke-width="1.0" stroke-linejoin="round" stroke-linecap="butt" d="m116.761154 32.279526l0 0c0 14.472473 -12.444366 26.204727 -27.795273 26.204727q-13.897636 0 -27.795277 0q0 -13.102364 0 -26.204727l0 0c0 -14.472467 12.44437 -26.204723 27.795277 -26.204723l0 0c15.350906 0 27.795273 11.732255 27.795273 26.204723z" fill-rule="evenodd"/><path fill="#f3f3f3" d="m2.7052083 87.19968l0 0c0 -14.4724655 12.437319 -26.211773 27.779528 -26.22047q13.889765 -0.007873535 27.779528 -0.01574707q0 13.10236 0 26.204723l0 0c0 14.4724655 -12.437317 26.211777 -27.779528 26.220474l0 0c-15.342209 0.00869751 -27.779528 -11.716507 -27.779528 -26.18898z" fill-rule="evenodd"/><path stroke="#d9d9d9" stroke-width="1.0" stroke-linejoin="round" stroke-linecap="butt" d="m2.7052083 87.19968l0 0c0 -14.4724655 12.437319 -26.211773 27.779528 -26.22047q13.889765 -0.007873535 27.779528 -0.01574707q0 13.10236 0 26.204723l0 0c0 14.4724655 -12.437317 26.211777 -27.779528 26.220474l0 0c-15.342209 0.00869751 -27.779528 -11.716507 -27.779528 -26.18898z" fill-rule="evenodd"/><path fill="#f3f3f3" d="m87.469284 116.585014l0 0c-14.472473 0 -26.22588 -12.451424 -26.251968 -27.811028q-0.02362442 -13.90551 -0.047245026 -27.81102q13.10236 0 26.204723 0l0 0c14.472473 0 26.225876 12.451416 26.251968 27.81102l0 0c0.02609253 15.359604 -11.685013 27.811028 -26.157478 27.811028z" fill-rule="evenodd"/><path stroke="#d9d9d9" stroke-width="1.0" stroke-linejoin="round" stroke-linecap="butt" d="m87.469284 116.585014l0 0c-14.472473 0 -26.22588 -12.451424 -26.251968 -27.811028q-0.02362442 -13.90551 -0.047245026 -27.81102q13.10236 0 26.204723 0l0 0c14.472473 0 26.225876 12.451416 26.251968 27.81102l0 0c0.02609253 15.359604 -11.685013 27.811028 -26.157478 27.811028z" fill-rule="evenodd"/></g></svg>