<svg version="1.1" viewBox="0.0 0.0 100.0 100.0" fill="none" stroke="none" stroke-linecap="square" stroke-miterlimit="10" xmlns:xlink="http://www.w3.org/1999/xlink" xmlns="http://www.w3.org/2000/svg"><clipPath id="p.0"><path d="m0 0l100.0 0l0 100.0l-100.0 0l0 -100.0z" clip-rule="nonzero"/></clipPath><g clip-path="url(#p.0)"><path fill="#000000" fill-opacity="0.0" d="m0 0l100.0 0l0 100.0l-100.0 0z" fill-rule="evenodd"/><path fill="#000000" fill-opacity="0.0" d="m6.627236 -16.611061l100.0 0l0 108.09449l-100.0 0z" fill-rule="evenodd"/><path fill="#000000" d="m76.564735 37.01394q0 0.5 -0.203125 1.140625q-0.1875 0.625 -0.1875 1.203125q0 0.5 0.046875 1.09375q0.046875 0.578125 0.046875 1.0625q0 0.875 -0.203125 1.953125q-0.1875 1.078125 -0.28125 2.34375q-0.09375 0.96875 -0.046875 1.8125q0.046875 0.828125 -0.34375 1.796875q0.203125 0.78125 0.140625 1.859375q-0.046875 1.078125 -0.140625 2.4375q0 0.390625 0.09375 0.734375q0.109375 0.34375 0.109375 0.734375q-0.203125 0.578125 -0.109375 0.828125q0.109375 0.25 0 0.4375q0 0.59375 -0.203125 1.03125q-0.1875 0.4375 -0.28125 0.921875q-0.09375 0.390625 -0.046875 0.78125q0.046875 0.390625 0.046875 0.78125q-0.09375 0.390625 -0.203125 0.78125q-0.09375 0.390625 -0.1875 0.875q-0.1875 1.171875 -0.296875 2.546875q-0.09375 1.359375 -0.390625 2.640625q-0.484375 0.96875 -0.578125 1.65625q-0.09375 0.6875 -0.296875 1.359375q-0.1875 0.59375 -0.34375 1.078125q-0.140625 0.484375 -0.34375 1.171875q-0.1875 0.484375 -0.484375 1.609375q-0.296875 1.125 -0.484375 1.90625q-0.09375 0.296875 -0.203125 0.59375q-0.09375 0.28125 -0.28125 0.671875q-0.203125 0.5 -0.359375 0.890625q-0.140625 0.390625 -0.328125 0.78125q-0.390625 0.578125 -0.390625 0.78125q0 0.1875 -0.09375 0.28125q-0.5 0.5 -0.59375 0.546875q-0.09375 0.046875 -0.1875 0.234375q-0.390625 0.5 -0.734375 1.140625q-0.34375 0.625 -0.828125 1.3125q-0.6875 0.671875 -0.78125 1.0625q-0.390625 0.5 -0.984375 1.140625q-0.578125 0.625 -1.171875 1.109375q-0.296875 0.390625 -0.734375 0.640625q-0.4375 0.234375 -0.828125 0.53125q-0.78125 0.78125 -1.171875 1.21875q-0.390625 0.453125 -0.78125 0.640625q-0.96875 0.59375 -2.25 0.484375q-0.78125 0.984375 -2.203125 1.265625q-1.40625 0.296875 -2.875 0.59375q-0.671875 -0.296875 -1.0625 -0.96875q-0.5 0.09375 -0.703125 0.328125q-0.1875 0.25 -0.671875 0.25q-0.484375 0 -0.828125 -0.15625q-0.34375 -0.140625 -0.734375 -0.140625q-0.578125 0.296875 -1.265625 0.25q-0.6875 -0.046875 -1.765625 -0.25q-0.484375 0 -0.921875 0q-0.4375 0 -0.828125 -0.1875q-2.34375 -0.984375 -3.421875 -0.78125q-0.296875 -0.484375 -0.828125 -0.59375q-0.53125 -0.09375 -1.03125 -0.390625q-0.671875 -0.578125 -1.0625 -0.765625q-0.390625 -0.203125 -0.296875 -0.5q-0.6875 -0.484375 -1.03125 -0.578125q-0.34375 -0.109375 -0.140625 -0.59375q-0.484375 0 -0.640625 -0.046875q-0.140625 -0.046875 -0.625 -0.34375q-0.296875 -0.203125 -0.453125 -0.484375q-0.140625 -0.296875 -0.625 -0.203125q-0.203125 -0.390625 -0.546875 -0.484375q-0.328125 -0.09375 -0.328125 -0.59375q-0.5 0 -0.75 -0.28125q-0.234375 -0.296875 -0.625 -0.390625q-0.390625 -0.78125 -1.125 -1.359375q-0.734375 -0.59375 -1.515625 -1.1875q-0.28125 -0.1875 -0.625 -0.4375q-0.34375 -0.25 -0.546875 -0.53125q-0.28125 -0.296875 -0.53125 -0.78125q-0.25 -0.5 -0.53125 -0.984375q-0.6875 -0.78125 -0.796875 -1.015625q-0.09375 -0.25 -0.28125 -0.453125q-0.78125 -0.484375 -0.890625 -0.671875q-0.09375 -0.203125 -0.1875 -0.296875q-0.1875 -0.296875 -0.53125 -0.828125q-0.34375 -0.546875 -0.34375 -1.125q-0.203125 -0.296875 -0.40625 -0.53125q-0.1875 -0.25 -0.375 -0.546875q0.1875 -0.484375 -0.0625 -0.78125q-0.234375 -0.296875 -0.328125 -0.78125q-0.203125 -0.78125 -0.203125 -1.703125q0 -0.9375 -0.1875 -1.71875q-0.296875 -0.96875 -0.78125 -1.5625q0.09375 -1.0625 -0.15625 -1.359375q-0.234375 -0.296875 -0.4375 -0.484375q0.109375 -1.46875 -0.484375 -2.25q0.390625 -1.078125 -0.09375 -2.046875q-0.484375 -0.984375 -0.203125 -1.953125q0.203125 -0.390625 0.15625 -0.6875q-0.046875 -0.296875 -0.046875 -0.875q-0.109375 -0.78125 0.1875 -2.0625q0.09375 -0.28125 -0.15625 -0.625q-0.234375 -0.34375 -0.328125 -0.734375q-0.09375 -0.484375 0.140625 -1.3125q0.25 -0.84375 0.25 -1.515625q0 -0.390625 -0.109375 -0.6875q-0.09375 -0.296875 0.015625 -0.59375q0 -0.390625 0.1875 -0.625q0.203125 -0.25 0.296875 -0.546875q-0.203125 -1.0625 -0.15625 -1.984375q0.0625 -0.9375 -0.140625 -2.015625q0.6875 -0.875 0.53125 -1.109375q-0.140625 -0.25 -0.140625 -0.640625q0.6875 -1.171875 0.984375 -2.453125q0 -0.390625 -0.0625 -0.71875q-0.046875 -0.34375 0.0625 -0.640625q0.28125 -1.078125 0.234375 -1.515625q-0.046875 -0.4375 0.15625 -0.921875q0.1875 -0.984375 0.578125 -1.28125q-0.1875 -0.671875 -0.34375 -1.5q-0.140625 -0.84375 0.25 -1.625q0.484375 -0.28125 1.109375 -0.328125q0.640625 -0.0625 1.140625 -0.34375q0.1875 0.1875 0.671875 0.140625q0.5 -0.046875 0.5 0.34375q1.0625 -0.203125 1.453125 -0.34375q0.390625 -0.140625 0.78125 -0.140625q1.078125 0 2.046875 0.046875q0.984375 0.046875 1.859375 -0.046875q0.59375 1.0625 0.734375 1.65625q0.15625 0.578125 0.25 1.5625q0.1875 1.5625 0.140625 3.328125q-0.046875 1.75 -0.140625 3.609375q0 0.390625 0.09375 0.734375q0.09375 0.328125 0.09375 0.71875q-0.09375 0.59375 -0.140625 1.1875q-0.046875 0.578125 -0.046875 1.265625q-0.203125 0.78125 -0.203125 1.265625q0.296875 1.359375 0.34375 2.4375q0.046875 1.078125 0.046875 1.46875q-0.1875 0.78125 0.046875 1.515625q0.25 0.734375 -0.140625 1.515625q0.78125 1.0625 0.78125 2.53125q0 1.46875 0.09375 3.125q0.109375 0.6875 0.296875 1.328125q0.203125 0.625 0.203125 1.5q-0.203125 0.78125 -0.0625 1.171875q0.15625 0.390625 0.15625 0.6875q0 1.078125 -0.109375 2.15625q-0.09375 1.0625 0.203125 2.046875q0.09375 0.390625 0.234375 0.78125q0.15625 0.390625 0.359375 0.78125q0.1875 0.484375 0.28125 0.984375q0.109375 0.484375 0.296875 0.671875q0.203125 0.296875 0.390625 0.5q0.203125 0.1875 0.390625 0.375q0.78125 0.984375 1.21875 1.46875q0.4375 0.484375 1.03125 0.6875q0 0.390625 0.140625 0.640625q0.15625 0.234375 0.25 0.53125q0.390625 0 0.734375 0.09375q0.34375 0.09375 0.828125 0.203125q0.1875 0.390625 0.578125 0.59375q0.390625 0.1875 0.59375 0.578125q0.96875 0 1.5625 0.578125q0.578125 -0.1875 1.15625 0.109375q0.59375 0.28125 1.484375 0.28125q0.28125 0 0.765625 -0.140625q0.5 -0.15625 0.796875 -0.15625q1.5625 -0.1875 2.921875 -0.375q1.375 -0.203125 2.15625 -0.6875q0.390625 -0.5 0.625 -0.640625q0.25 -0.140625 0.4375 -0.34375q0.59375 -0.78125 1.03125 -1.359375q0.4375 -0.59375 0.828125 -1.078125q0.390625 -0.296875 0.875 -1.078125q0.203125 -0.390625 0.4375 -0.828125q0.25 -0.4375 0.640625 -0.734375q0.09375 -1.078125 0.4375 -1.703125q0.34375 -0.640625 0.828125 -1.328125q0 -0.578125 0.046875 -1.0625q0.0625 -0.5 0.453125 -0.78125q-0.203125 -0.390625 -0.015625 -0.6875q0.203125 -0.296875 0.109375 -0.875q0.09375 -0.296875 0.28125 -0.484375q0.203125 -0.203125 0.40625 -0.59375q0.09375 -0.203125 0.046875 -0.53125q-0.046875 -0.34375 0.234375 -0.546875q-0.484375 -1.078125 -0.34375 -2.53125q0.15625 -1.46875 0.453125 -2.84375q0.09375 -0.484375 0.28125 -0.828125q0.203125 -0.34375 0.203125 -0.734375q0 -1.0625 0.09375 -1.5q0.09375 -0.453125 0.203125 -0.84375q0 -0.484375 -0.109375 -0.875q-0.09375 -0.390625 -0.09375 -0.875q0 -0.296875 0.09375 -0.640625q0.109375 -0.34375 0.109375 -0.734375q0 -0.578125 -0.109375 -1.0625q-0.09375 -0.5 -0.1875 -0.984375q0 -0.390625 0.09375 -0.734375q0.09375 -0.34375 0.09375 -0.828125q0.109375 -0.484375 0 -1.015625q-0.09375 -0.546875 -0.09375 -1.125q0 -0.390625 0.09375 -0.734375q0.109375 -0.34375 0.109375 -0.828125q0 -0.296875 -0.0625 -0.640625q-0.046875 -0.34375 -0.046875 -0.640625q0 -0.484375 0.1875 -0.96875q0.203125 -0.484375 0.015625 -0.984375q-0.390625 -0.484375 -0.296875 -0.671875q0.09375 -0.203125 0 -0.390625q-0.1875 -0.390625 -0.296875 -0.6875q-0.09375 -0.296875 -0.1875 -0.484375q-0.09375 -0.296875 -0.09375 -0.390625q0.09375 -0.78125 -0.015625 -1.125q-0.09375 -0.34375 -0.09375 -0.640625q0 -0.875 0.09375 -1.109375q0.109375 -0.25 0.203125 -0.453125q0.390625 -0.578125 1.078125 -0.828125q0.6875 -0.25 1.46875 -0.34375q0.78125 -0.09375 1.65625 -0.09375q0.875 0 1.65625 -0.09375q1.078125 -0.296875 1.515625 -0.25q0.4375 0.046875 0.734375 -0.046875q0.578125 -0.09375 1.21875 -0.28125q0.640625 -0.203125 1.421875 0.375q0.78125 -0.578125 1.703125 -0.53125q0.921875 0.046875 1.421875 0.734375q0.28125 0.390625 0.328125 0.6875q0.0625 0.28125 0.25 0.96875q0.09375 0.484375 0.140625 0.734375q0.0625 0.234375 -0.046875 0.921875q-0.09375 0.484375 0.09375 1.171875q0.203125 0.6875 0.203125 1.265625z" fill-rule="nonzero"/><path fill="#e51636" d="m21.663393 20.859238l0 0c0 -3.9747105 3.2221413 -7.19685 7.1968517 -7.19685l0 0c1.9087219 0 3.7392693 0.75823784 5.0889397 2.1079092c1.3496742 1.3496714 2.1079102 3.1802187 2.1079102 5.0889406l0 0c0 3.9747105 -3.2221413 7.1968517 -7.19685 7.1968517l0 0c-3.9747105 0 -7.1968517 -3.2221413 -7.1968517 -7.1968517z" fill-rule="evenodd"/><path stroke="#e51636" stroke-width="1.0" stroke-linejoin="round" stroke-linecap="butt" d="m21.663393 20.859238l0 0c0 -3.9747105 3.2221413 -7.19685 7.1968517 -7.19685l0 0c1.9087219 0 3.7392693 0.75823784 5.0889397 2.1079092c1.3496742 1.3496714 2.1079102 3.1802187 2.1079102 5.0889406l0 0c0 3.9747105 -3.2221413 7.1968517 -7.19685 7.1968517l0 0c-3.9747105 0 -7.1968517 -3.2221413 -7.1968517 -7.1968517z" fill-rule="evenodd"/><path fill="#000000" fill-opacity="0.0" d="m280.51706 24.643045l16.913391 0l0 14.897638l-16.913391 0z" fill-rule="evenodd"/><path fill="#000000" fill-opacity="0.0" d="m174.72441 -160.43832l280.7874 0l0 42.015755l-280.7874 0z" fill-rule="evenodd"/><path fill="#e51636" d="m62.395313 20.859238l0 0c0 -3.9747105 3.2221413 -7.19685 7.19685 -7.19685l0 0c1.9087219 0 3.739273 0.75823784 5.0889435 2.1079092c1.3496704 1.3496714 2.1079025 3.1802187 2.1079025 5.0889406l0 0c0 3.9747105 -3.2221375 7.1968517 -7.196846 7.1968517l0 0c-3.9747086 0 -7.19685 -3.2221413 -7.19685 -7.1968517z" fill-rule="evenodd"/><path stroke="#e51636" stroke-width="1.0" stroke-linejoin="round" stroke-linecap="butt" d="m62.395313 20.859238l0 0c0 -3.9747105 3.2221413 -7.19685 7.19685 -7.19685l0 0c1.9087219 0 3.739273 0.75823784 5.0889435 2.1079092c1.3496704 1.3496714 2.1079025 3.1802187 2.1079025 5.0889406l0 0c0 3.9747105 -3.2221375 7.1968517 -7.196846 7.1968517l0 0c-3.9747086 0 -7.19685 -3.2221413 -7.19685 -7.1968517z" fill-rule="evenodd"/></g></svg>