<svg version="1.1" viewBox="0.0 0.0 214.8713910761155 213.4304461942257" fill="none" stroke="none" stroke-linecap="square" stroke-miterlimit="10" xmlns:xlink="http://www.w3.org/1999/xlink" xmlns="http://www.w3.org/2000/svg"><clipPath id="p.0"><path d="m0 0l214.87138 0l0 213.43045l-214.87138 0l0 -213.43045z" clip-rule="nonzero"/></clipPath><g clip-path="url(#p.0)"><path fill="#000000" fill-opacity="0.0" d="m0 0l214.87138 0l0 213.43045l-214.87138 0z" fill-rule="evenodd"/><path fill="#000000" d="m1.7447575 106.85689l0 0c0 -57.376736 47.225143 -103.88976 105.480316 -103.88976l0 0c27.97512 0 54.80445 10.945497 74.58584 30.428608c19.781403 19.483109 30.89447 45.907875 30.89447 73.46116l0 0c0 57.376724 -47.225143 103.889755 -105.48031 103.889755l0 0c-58.255173 0 -105.480316 -46.51303 -105.480316 -103.889755z" fill-rule="evenodd"/><path stroke="#000000" stroke-width="1.0" stroke-linejoin="round" stroke-linecap="butt" d="m1.7447575 106.85689l0 0c0 -57.376736 47.225143 -103.88976 105.480316 -103.88976l0 0c27.97512 0 54.80445 10.945497 74.58584 30.428608c19.781403 19.483109 30.89447 45.907875 30.89447 73.46116l0 0c0 57.376724 -47.225143 103.889755 -105.48031 103.889755l0 0c-58.255173 0 -105.480316 -46.51303 -105.480316 -103.889755z" fill-rule="evenodd"/><path fill="#000000" fill-opacity="0.0" d="m54.35554 38.88068l108.97638 0l0 174.51968l-108.97638 0z" fill-rule="evenodd"/><path fill="#ffffff" d="m141.35555 92.63568q0 0.25 -0.125 0.75q-0.125 0.5 -0.125 0.875q0 0.375 0.125 0.75q0.125 0.375 0.125 0.625q-0.125 0.375 -0.25 0.875q-0.125 0.5 -0.25 0.875q-0.25 1.125 -0.3125 2.125q-0.0625 1.0 -0.6875 1.625q0.25 0.5 0.125 1.125q-0.125 0.625 -0.125 1.125q0 0.875 0.1875 1.5625q0.1875 0.6875 0.0625 1.4375q0 0.625 -0.125 1.1875q-0.125 0.5625 -0.25 1.1875q-0.25 1.25 -0.4375 2.5q-0.1875 1.25 -0.3125 2.625q-0.25 1.5 -0.0625 2.1875q0.1875 0.6875 -0.4375 1.1875q0.5 1.375 0.5 3.1875q0 1.8125 0.375 3.1875q0 0.5 -0.25 0.75q-0.25 0.25 -0.125 0.875q0.25 0.625 0.25 1.25q0 0.625 0.125 1.25q0.25 1.0 0.125 1.4375q-0.125 0.4375 0 0.5625q0.125 0.5 0.3125 1.0q0.1875 0.5 0.1875 0.75q0.25 0.875 0.125 3.125q-0.125 1.375 0.0625 1.9375q0.1875 0.5625 0.1875 0.9375q-0.25 1.25 -0.25 2.0q-0.125 0.875 0 1.4375q0.125 0.5625 -0.125 1.5625q-0.25 1.875 -0.5625 3.5625q-0.3125 1.6875 -0.5625 3.1875q-0.375 0.875 -0.3125 1.1875q0.0625 0.3125 0.0625 0.5625q-0.125 0.5 -0.25 1.0q-0.125 0.5 -0.25 1.0q-0.25 1.0 -0.375 1.9375q-0.125 0.9375 -0.5 1.6875q-0.625 0.75 -0.625 1.125q0 0.375 -0.125 0.625q-1.125 1.125 -1.875 2.1875q-0.75 1.0625 -1.375 1.9375q-1.375 1.375 -2.4375 2.6875q-1.0625 1.3125 -2.0625 2.8125q-0.375 0.625 -0.1875 1.0625q0.1875 0.4375 -0.0625 0.8125q-0.875 0.75 -1.8125 1.4375q-0.9375 0.6875 -2.4375 0.9375q-0.25 0.5 -0.4375 1.0625q-0.1875 0.5625 -0.4375 1.0625q-0.875 0 -1.5 0.5q-0.625 0.5 -1.375 0.875q-0.25 0.125 -0.6875 0.25q-0.4375 0.125 -1.0625 0.25q-0.625 0.25 -1.125 0.375q-0.5 0.125 -1.25 0.375q-0.875 0.5 -1.375 0.5625q-0.5 0.0625 -0.875 0.1875q-1.375 0.375 -2.3125 0.625q-0.9375 0.25 -2.6875 0.25q-1.625 0.25 -2.25 0.4375q-0.625 0.1875 -1.25 0.3125q-1.375 -0.25 -2.625 -0.25q-1.25 0 -2.0 -0.25q-1.0 -0.75 -1.625 -1.1875q-0.625 -0.4375 -0.875 -0.6875q-0.625 -0.25 -1.25 -0.125q-0.625 0.125 -1.125 -0.125q-0.375 -0.125 -0.75 -0.4375q-0.375 -0.3125 -0.875 -0.5625q-0.5 -0.25 -1.0 -0.1875q-0.5 0.0625 -1.125 -0.0625q-0.625 -0.75 -1.375 -1.25q-0.75 -0.5 -1.75 -0.5q-0.625 -1.0 -1.6875 -1.375q-1.0625 -0.375 -1.6875 -1.375q-0.625 -0.25 -1.0625 -0.3125q-0.4375 -0.0625 -0.9375 -0.3125q-0.625 -0.625 -0.75 -1.0q-0.125 -0.375 -0.375 -0.625q-1.0 -1.25 -1.375 -1.5q-0.375 -0.25 -0.375 -0.75q-1.375 -1.375 -1.8125 -2.5q-0.4375 -1.125 -1.4375 -1.75q-0.625 -1.625 -0.6875 -2.75q-0.0625 -1.125 -0.4375 -2.25q-0.125 -0.375 -0.375 -0.75q-0.25 -0.375 -0.375 -0.875q-0.125 -0.375 -0.0625 -0.8125q0.0625 -0.4375 -0.0625 -0.9375q-0.25 -1.0 -0.3125 -2.1875q-0.0625 -1.1875 0.1875 -2.4375q-1.0 -1.5 -1.0 -3.5625q0 -2.0625 -0.625 -3.8125q0 -0.625 0.125 -1.0q0.125 -0.375 0.25 -0.75q-1.0 -2.5 -0.25 -3.875q-0.375 -0.875 -0.375 -1.5q0 -0.625 0 -1.625q0 -0.375 -0.125 -1.0q-0.125 -0.625 -0.25 -1.5q0 -0.5 0.0625 -0.875q0.0625 -0.375 0.0625 -0.75q-0.125 -0.5 -0.1875 -0.875q-0.0625 -0.375 0.1875 -0.75q-0.25 -0.375 -0.3125 -0.875q-0.0625 -0.5 -0.4375 -0.75q0.375 -0.625 0.1875 -1.6875q-0.1875 -1.0625 0.3125 -1.6875q-0.25 -0.5 -0.5625 -1.25q-0.3125 -0.75 0.1875 -1.5q-0.125 -0.5 -0.375 -0.9375q-0.25 -0.4375 -0.375 -1.0625q0.125 -0.5 0.125 -0.6875q0 -0.1875 0.125 -0.6875q-0.25 -1.0 -0.125 -1.375q0.125 -0.375 -0.125 -0.875q-0.25 -0.625 0 -1.625q0.25 -1.0 -0.25 -1.75q0.375 -1.5 0.125 -2.125q-0.25 -0.625 0.125 -1.25q-0.125 -1.75 -0.125 -2.8125q0 -1.0625 0 -2.1875q0.375 -1.0 0.25 -1.4375q-0.125 -0.4375 -0.125 -0.6875q0.125 -1.75 -0.125 -2.5625q-0.25 -0.8125 0.125 -1.4375q-0.625 -1.0 -0.5 -2.1875q0.125 -1.1875 0.25 -2.1875q0 -0.5 0.125 -1.0q0.125 -0.5 -0.375 -0.75q0.625 -1.0 0.375 -2.1875q-0.25 -1.1875 0.375 -1.8125q-0.25 -0.875 -0.5 -1.6875q-0.25 -0.8125 0 -1.8125q-0.125 -0.75 -0.875 -0.875q-0.75 -0.125 -1.125 -0.625q-0.375 -1.0 0 -1.875q0.375 -0.875 0.375 -2.125q1.0 -0.75 1.9375 -2.0q0.9375 -1.25 2.8125 -0.5q1.625 0.25 2.6875 0.6875q1.0625 0.4375 2.0625 0.4375q0.5 0 0.875 -0.125q0.375 -0.125 0.75 0q0.75 0 1.4375 0.25q0.6875 0.25 1.3125 0.375q0.625 0.125 1.1875 0q0.5625 -0.125 1.0625 0q0.5 0.25 1.25 0.6875q0.75 0.4375 1.375 0.8125q1.0 0.375 1.5 0.6875q0.5 0.3125 1.0 0.6875q0.25 1.0 -0.125 1.875q-0.375 0.875 -0.625 1.75q-0.125 0.75 -0.0625 1.4375q0.0625 0.6875 -0.1875 1.3125q-0.125 0.625 -0.375 1.0q-0.25 0.375 -0.5 1.0q-0.25 1.125 -0.3125 2.3125q-0.0625 1.1875 -0.3125 2.3125q-0.25 1.125 -0.5 2.1875q-0.25 1.0625 -0.25 2.0625q0 1.0 0.3125 2.0q0.3125 1.0 -0.4375 1.75q0.375 1.0 0.5 2.0625q0.125 1.0625 0.25 2.1875q0.25 1.0 0.375 2.0q0.125 1.0 0.125 2.0q-0.375 1.375 -0.3125 1.8125q0.0625 0.4375 0.0625 0.6875q-0.125 0.625 -0.1875 1.25q-0.0625 0.625 -0.0625 1.25q0 0.375 0.1875 0.75q0.1875 0.375 0.1875 1.0q-0.125 1.125 -0.125 2.375q0 1.25 0 2.25q0.125 0.625 0.25 1.25q0.125 0.625 0.125 1.25q0.125 1.0 0 2.0q-0.125 1.0 -0.125 2.0q0.125 1.5 0.3125 2.9375q0.1875 1.4375 -0.4375 2.8125q0.25 1.25 0.3125 2.5625q0.0625 1.3125 0.1875 2.8125q0.25 2.0 0.625 4.125q0.375 2.125 0.625 4.125q0.125 0.625 0.1875 1.375q0.0625 0.75 0.1875 1.375q0.125 0.625 0.3125 1.1875q0.1875 0.5625 0.4375 1.1875q0.25 1.0 0.375 1.875q0.125 0.875 0.625 1.5q0.625 0.625 0.625 0.875q0 0.25 0 0.375q1.375 1.375 1.875 2.3125q0.5 0.9375 1.125 1.3125q0.25 0.25 0.875 0.4375q0.625 0.1875 1.25 0.4375q0.5 0.25 0.9375 0.5625q0.4375 0.3125 0.8125 0.4375q0.625 0.25 1.8125 0.4375q1.1875 0.1875 2.3125 0.0625q0.75 0 1.4375 -0.375q0.6875 -0.375 1.5625 -0.125q0.375 -0.5 1.0 -0.625q0.625 -0.125 1.0 -0.375q0.75 -0.5 1.3125 -1.0625q0.5625 -0.5625 1.3125 -0.9375q0.375 -0.75 0.8125 -1.375q0.4375 -0.625 1.0625 -1.25q0.5 -1.0 0.875 -1.375q0.25 -0.375 0.4375 -0.625q0.1875 -0.25 0.3125 -0.625q0.25 -0.5 0.25 -0.9375q0 -0.4375 0.25 -0.8125q0.25 -0.625 0.5 -1.3125q0.25 -0.6875 0.5 -1.6875q0.375 -0.625 0.375 -1.0625q0 -0.4375 0.125 -0.6875q1.0 -1.5 1.5 -2.3125q0.5 -0.8125 0.75 -1.6875q0 -1.0 0.1875 -1.1875q0.1875 -0.1875 0.1875 -0.4375q0.125 -0.375 0.0625 -0.75q-0.0625 -0.375 -0.0625 -0.875q0.375 -1.125 0.3125 -1.6875q-0.0625 -0.5625 -0.0625 -1.0625q0.125 -1.0 0.125 -1.9375q0 -0.9375 0.25 -1.9375q0.25 -1.375 0.3125 -1.875q0.0625 -0.5 0.1875 -1.0q-0.125 -1.375 0.0625 -2.125q0.1875 -0.75 0.3125 -1.5q0.125 -0.625 0.0625 -1.25q-0.0625 -0.625 0.0625 -1.125q0.125 -0.625 0.25 -1.0q0.125 -0.375 0.375 -0.75q-0.25 -0.5 -0.375 -0.875q-0.125 -0.375 -0.25 -0.875q0 -0.625 0.125 -1.1875q0.125 -0.5625 0.125 -1.3125q0.125 -0.625 0 -1.125q-0.125 -0.5 -0.125 -1.0q0.125 -1.125 0.125 -2.1875q0 -1.0625 0 -2.1875q0 -1.625 0.1875 -3.0625q0.1875 -1.4375 0.1875 -2.9375q-0.125 -1.125 -0.1875 -2.125q-0.0625 -1.0 -0.1875 -2.0q0 -1.0 -0.1875 -2.0q-0.1875 -1.0 -0.0625 -2.0q0 -0.5 0.125 -0.9375q0.125 -0.4375 0 -0.9375q0 -0.375 -0.125 -0.8125q-0.125 -0.4375 -0.125 -1.0625q-0.125 -1.0 0.0625 -1.625q0.1875 -0.625 -0.0625 -1.625q-0.375 -2.5 -0.5 -4.75q-0.125 -2.25 0.25 -4.375q0.375 -0.25 0.75 -0.3125q0.375 -0.0625 0.5 -0.4375q0.875 -0.25 1.625 0.0625q0.75 0.3125 1.375 0.1875q0.5 -0.125 0.8125 -0.3125q0.3125 -0.1875 0.8125 -0.4375q0.75 0.25 1.625 0.3125q0.875 0.0625 1.75 -0.3125q0.375 -0.25 1.3125 -0.1875q0.9375 0.0625 1.6875 -0.0625q1.125 -0.375 1.5625 -0.3125q0.4375 0.0625 0.8125 0.0625q0.875 0 1.625 -0.0625q0.75 -0.0625 1.375 0.1875q0.5 0.5 0.6875 0.9375q0.1875 0.4375 0.4375 0.9375q0.625 0.75 0.375 2.75q-0.25 2.0 -0.25 3.75q0 1.125 0.0625 2.25q0.0625 1.125 0.3125 2.125l0.375 1.0z" fill-rule="nonzero"/><path fill="#e51636" d="m69.31294 48.069656l0 0c0 -6.531746 5.421936 -11.826775 12.110237 -11.826775l0 0c3.2118301 0 6.292122 1.2460327 8.563232 3.4639816c2.271103 2.217949 3.5470047 5.2261353 3.5470047 8.362793l0 0c0 6.531742 -5.421936 11.826771 -12.110237 11.826771l0 0c-6.688301 0 -12.110237 -5.2950287 -12.110237 -11.826771z" fill-rule="evenodd"/><path stroke="#000000" stroke-width="1.0" stroke-linejoin="round" stroke-linecap="butt" d="m69.31294 48.069656l0 0c0 -6.531746 5.421936 -11.826775 12.110237 -11.826775l0 0c3.2118301 0 6.292122 1.2460327 8.563232 3.4639816c2.271103 2.217949 3.5470047 5.2261353 3.5470047 8.362793l0 0c0 6.531742 -5.421936 11.826771 -12.110237 11.826771l0 0c-6.688301 0 -12.110237 -5.2950287 -12.110237 -11.826771z" fill-rule="evenodd"/><path fill="#e51636" d="m118.64628 49.40299l0 0c0 -6.531746 5.421936 -11.826771 12.110237 -11.826771l0 0c3.2118378 0 6.2921143 1.2460289 8.563232 3.4639816c2.271103 2.217949 3.546997 5.2261353 3.546997 8.362789l0 0c0 6.531746 -5.421936 11.826771 -12.1102295 11.826771l0 0c-6.688301 0 -12.110237 -5.295025 -12.110237 -11.826771z" fill-rule="evenodd"/><path stroke="#000000" stroke-width="1.0" stroke-linejoin="round" stroke-linecap="butt" d="m118.64628 49.40299l0 0c0 -6.531746 5.421936 -11.826771 12.110237 -11.826771l0 0c3.2118378 0 6.2921143 1.2460289 8.563232 3.4639816c2.271103 2.217949 3.546997 5.2261353 3.546997 8.362789l0 0c0 6.531746 -5.421936 11.826771 -12.1102295 11.826771l0 0c-6.688301 0 -12.110237 -5.295025 -12.110237 -11.826771z" fill-rule="evenodd"/></g></svg>