<svg version="1.1" viewBox="0.0 0.0 330.98687664041995 276.0551181102362" fill="none" stroke="none" stroke-linecap="square" stroke-miterlimit="10" xmlns:xlink="http://www.w3.org/1999/xlink" xmlns="http://www.w3.org/2000/svg"><clipPath id="p.0"><path d="m0 0l330.98688 0l0 276.0551l-330.98688 0l0 -276.0551z" clip-rule="nonzero"/></clipPath><g clip-path="url(#p.0)"><path fill="#000000" fill-opacity="0.0" d="m0 0l330.98688 0l0 276.0551l-330.98688 0z" fill-rule="evenodd"/><path fill="#d9d9d9" d="m-119.7196 47.831257c2.8171463 -44.83596 76.52756 -26.058182 102.81889 -32.396328c26.291338 -6.3381453 37.79309 -7.2760277 54.929134 -5.6325455c17.136044 1.6434813 33.80271 7.0428686 47.88714 15.493438c14.084427 8.450569 25.117233 21.594925 36.619423 35.209972c11.50219 13.615047 22.769463 32.160984 32.3937 46.48032c9.624237 14.319328 17.60498 27.464127 25.3517 39.4357c7.7467194 11.971558 12.443146 23.94313 21.128616 32.393692c8.685471 8.450577 17.83902 12.910767 30.984253 18.309708c13.145233 5.3989563 34.976364 11.266846 47.88713 14.084c12.910767 2.8171387 16.431763 3.288269 29.577423 2.8188934c13.145691 -0.4693756 29.578308 -10.564743 49.2966 -5.6351776c19.718292 4.9295807 81.688965 20.18898 69.01312 35.2126c-12.675842 15.023621 -68.07306 48.121613 -145.06824 54.92914c-76.99519 6.8075256 -249.7664 27.69992 -316.9029 -14.083984c-67.13648 -41.783905 -88.733154 -191.78348 -85.91601 -236.61943z" fill-rule="evenodd"/><path stroke="#000000" stroke-width="1.0" stroke-linejoin="round" stroke-linecap="butt" d="m-119.7196 47.831257c2.8171463 -44.83596 76.52756 -26.058182 102.81889 -32.396328c26.291338 -6.3381453 37.79309 -7.2760277 54.929134 -5.6325455c17.136044 1.6434813 33.80271 7.0428686 47.88714 15.493438c14.084427 8.450569 25.117233 21.594925 36.619423 35.209972c11.50219 13.615047 22.769463 32.160984 32.3937 46.48032c9.624237 14.319328 17.60498 27.464127 25.3517 39.4357c7.7467194 11.971558 12.443146 23.94313 21.128616 32.393692c8.685471 8.450577 17.83902 12.910767 30.984253 18.309708c13.145233 5.3989563 34.976364 11.266846 47.88713 14.084c12.910767 2.8171387 16.431763 3.288269 29.577423 2.8188934c13.145691 -0.4693756 29.578308 -10.564743 49.2966 -5.6351776c19.718292 4.9295807 81.688965 20.18898 69.01312 35.2126c-12.675842 15.023621 -68.07306 48.121613 -145.06824 54.92914c-76.99519 6.8075256 -249.7664 27.69992 -316.9029 -14.083984c-67.13648 -41.783905 -88.733154 -191.78348 -85.91601 -236.61943z" fill-rule="evenodd"/><path fill="#b7b7b7" d="m-127.7196 79.83125c2.8171463 -44.835957 76.52756 -26.058178 102.81889 -32.396324c26.291338 -6.3381424 37.793087 -7.2760277 54.929134 -5.6325455c17.136044 1.6434822 33.80271 7.0428696 47.88714 15.493439c14.084427 8.450569 25.117233 21.594925 36.619423 35.209976c11.50219 13.615044 22.769463 32.16098 32.3937 46.480316c9.624237 14.319336 17.60498 27.464127 25.3517 39.4357c7.7467194 11.971558 12.443146 23.94313 21.128616 32.393692c8.685471 8.450577 17.83902 12.910767 30.984253 18.309708c13.145233 5.3989563 34.976364 11.266846 47.88713 14.084c12.910767 2.8171387 16.431763 3.288269 29.577423 2.8188934c13.145691 -0.4693756 29.578308 -10.564743 49.2966 -5.6351776c19.718292 4.9295807 81.688965 20.18898 69.01312 35.2126c-12.675842 15.023621 -68.07306 48.121613 -145.06824 54.92914c-76.99519 6.8075256 -249.7664 27.69992 -316.9029 -14.083984c-67.13648 -41.783905 -88.733154 -191.78348 -85.91601 -236.61943z" fill-rule="evenodd"/><path stroke="#000000" stroke-width="1.0" stroke-linejoin="round" stroke-linecap="butt" d="m-127.7196 79.83125c2.8171463 -44.835957 76.52756 -26.058178 102.81889 -32.396324c26.291338 -6.3381424 37.793087 -7.2760277 54.929134 -5.6325455c17.136044 1.6434822 33.80271 7.0428696 47.88714 15.493439c14.084427 8.450569 25.117233 21.594925 36.619423 35.209976c11.50219 13.615044 22.769463 32.16098 32.3937 46.480316c9.624237 14.319336 17.60498 27.464127 25.3517 39.4357c7.7467194 11.971558 12.443146 23.94313 21.128616 32.393692c8.685471 8.450577 17.83902 12.910767 30.984253 18.309708c13.145233 5.3989563 34.976364 11.266846 47.88713 14.084c12.910767 2.8171387 16.431763 3.288269 29.577423 2.8188934c13.145691 -0.4693756 29.578308 -10.564743 49.2966 -5.6351776c19.718292 4.9295807 81.688965 20.18898 69.01312 35.2126c-12.675842 15.023621 -68.07306 48.121613 -145.06824 54.92914c-76.99519 6.8075256 -249.7664 27.69992 -316.9029 -14.083984c-67.13648 -41.783905 -88.733154 -191.78348 -85.91601 -236.61943z" fill-rule="evenodd"/><path fill="#000000" d="m-135.7196 127.83125c2.817154 -44.835953 76.527565 -26.058174 102.81891 -32.396324c26.291338 -6.3381424 37.793087 -7.276024 54.929134 -5.6325455c17.136044 1.643486 33.80271 7.0428696 47.88714 15.493439c14.084427 8.450569 25.117233 21.594925 36.619423 35.209976c11.50219 13.615051 22.769463 32.16098 32.3937 46.480316c9.624237 14.319336 17.60498 27.464127 25.3517 39.4357c7.7467194 11.971558 12.443146 23.94313 21.128616 32.393707c8.685471 8.450562 17.83902 12.910736 30.984253 18.309692c13.145233 5.3989563 34.97638 11.266846 47.88713 14.083984c12.910767 2.8171692 16.431763 3.2882996 29.577423 2.8189087c13.145691 -0.46939087 29.578308 -10.564728 49.2966 -5.6351624c19.718292 4.9295654 81.688965 20.188965 69.01312 35.212585c-12.675842 15.023621 -68.07306 48.121613 -145.06824 54.92914c-76.99519 6.8075256 -249.7664 27.69992 -316.9029 -14.083984c-67.13648 -41.783905 -88.733154 -191.78348 -85.916016 -236.61943z" fill-rule="evenodd"/><path stroke="#000000" stroke-width="1.0" stroke-linejoin="round" stroke-linecap="butt" d="m-135.7196 127.83125c2.817154 -44.835953 76.527565 -26.058174 102.81891 -32.396324c26.291338 -6.3381424 37.793087 -7.276024 54.929134 -5.6325455c17.136044 1.643486 33.80271 7.0428696 47.88714 15.493439c14.084427 8.450569 25.117233 21.594925 36.619423 35.209976c11.50219 13.615051 22.769463 32.16098 32.3937 46.480316c9.624237 14.319336 17.60498 27.464127 25.3517 39.4357c7.7467194 11.971558 12.443146 23.94313 21.128616 32.393707c8.685471 8.450562 17.83902 12.910736 30.984253 18.309692c13.145233 5.3989563 34.97638 11.266846 47.88713 14.083984c12.910767 2.8171692 16.431763 3.2882996 29.577423 2.8189087c13.145691 -0.46939087 29.578308 -10.564728 49.2966 -5.6351624c19.718292 4.9295654 81.688965 20.188965 69.01312 35.212585c-12.675842 15.023621 -68.07306 48.121613 -145.06824 54.92914c-76.99519 6.8075256 -249.7664 27.69992 -316.9029 -14.083984c-67.13648 -41.783905 -88.733154 -191.78348 -85.916016 -236.61943z" fill-rule="evenodd"/></g></svg>